# xmcd CD database file
# Copyright (C) 1993-1996 Ti Kan
#
# Track frame offsets:
#	150
#	16637
#	29142
#	43857
#	54442
#	70412
#
# Disc length: 1100 seconds
#
# Revision: 1
# Processed by: cddbd v1.4b41PL1 Copyright (c) Steve Scherf et al.
# Submitted via: CDValet v3.30 - Copyright (c) 1997 Greg Leichner
#
DISCID=4d044a06
DTITLE=Stuart Robertson - Grip
DYEAR=1900
DGENRE=
TTITLE0=Grip
TTITLE1=Straight Man
TTITLE2=Pretty Picture
TTITLE3=Daddy Don't Care
TTITLE4=Good Wine
TTITLE5=Jealous Eyes
EXTD=
EXTT0=
EXTT1=
EXTT2=
EXTT3=
EXTT4=
EXTT5=
PLAYORDER=
